<svg xmlns="http://www.w3.org/2000/svg" width="59" height="59" viewBox="0 0 59 59"><defs><style>.a{fill:none;}.b{fill:#27ae60;}</style></defs><path class="a" d="M0,0H59V59H0Z"/><path class="b" d="M6.917,11.833H2V46.25a4.931,4.931,0,0,0,4.917,4.917H41.333V46.25H6.917ZM46.25,2H16.75a4.931,4.931,0,0,0-4.917,4.917v29.5a4.931,4.931,0,0,0,4.917,4.917h29.5a4.931,4.931,0,0,0,4.917-4.917V6.917A4.931,4.931,0,0,0,46.25,2ZM43.792,24.125H19.208V19.208H43.792Zm-9.833,9.833H19.208V29.042h14.75Zm9.833-19.667H19.208V9.375H43.792Z" transform="translate(2.917 2.917)"/></svg>